<svg width="409" height="378" viewBox="0 0 409 378" fill="none" xmlns="http://www.w3.org/2000/svg">
<path d="M175.025 122.236C175.025 122.236 183.568 152.955 208.368 152.952C233.168 152.948 238.247 120.53 238.247 120.53M204.086 52.2668C204.086 52.2668 151.012 -5.79743 87.8857 9.60214C24.7596 25.0017 -11.0561 74.4516 16.2709 156.368C43.5978 238.285 178.312 353.848 212.63 352.626C246.948 351.404 385.527 226.335 397.475 152.952C409.422 79.5686 395.469 19.9756 320.282 9.60214C245.096 -0.771333 204.086 52.2668 204.086 52.2668ZM127.181 111.997C127.181 119.537 121.06 125.649 113.511 125.649C105.961 125.649 99.8412 119.537 99.8412 111.997C99.8412 104.456 105.961 98.3439 113.511 98.3439C121.06 98.3439 127.181 104.456 127.181 111.997ZM311.722 108.583C311.722 116.124 305.602 122.236 298.053 122.236C290.503 122.236 284.383 116.124 284.383 108.583C284.383 101.043 290.503 94.9308 298.053 94.9308C305.602 94.9308 311.722 101.043 311.722 108.583Z" fill="#C0F6FF"/>
<path d="M311.722 108.583C311.722 116.124 305.602 122.236 298.053 122.236C290.503 122.236 284.383 116.124 284.383 108.583C284.383 101.043 290.503 94.9308 298.053 94.9308C305.602 94.9308 311.722 101.043 311.722 108.583Z" fill="black"/>
<path d="M127.181 111.997C127.181 119.537 121.06 125.649 113.511 125.649C105.961 125.649 99.8412 119.537 99.8412 111.997C99.8412 104.456 105.961 98.3439 113.511 98.3439C121.06 98.3439 127.181 104.456 127.181 111.997Z" fill="black"/>
<path d="M175.025 122.236C175.025 122.236 183.568 152.955 208.368 152.952C233.168 152.948 238.247 120.53 238.247 120.53M204.086 52.2668C204.086 52.2668 151.012 -5.79743 87.8857 9.60214C24.7596 25.0017 -11.0561 74.4516 16.2709 156.368C43.5978 238.285 178.312 353.848 212.63 352.626C246.948 351.404 385.527 226.335 397.475 152.952C409.422 79.5686 395.469 19.9756 320.282 9.60214C245.096 -0.771333 204.086 52.2668 204.086 52.2668ZM127.181 111.997C127.181 119.537 121.06 125.649 113.511 125.649C105.961 125.649 99.8412 119.537 99.8412 111.997C99.8412 104.456 105.961 98.3439 113.511 98.3439C121.06 98.3439 127.181 104.456 127.181 111.997ZM311.722 108.583C311.722 116.124 305.602 122.236 298.053 122.236C290.503 122.236 284.383 116.124 284.383 108.583C284.383 101.043 290.503 94.9308 298.053 94.9308C305.602 94.9308 311.722 101.043 311.722 108.583Z" stroke="black" stroke-width="14.0005" stroke-linecap="round"/>
<path d="M204.126 378.003C255.788 378.003 297.669 374.217 297.669 369.547C297.669 364.877 255.788 361.091 204.126 361.091C152.464 361.091 110.583 364.877 110.583 369.547C110.583 374.217 152.464 378.003 204.126 378.003Z" fill="#E5E5E5"/>
</svg>
